<?xml version="1.0" encoding="UTF-8"?><svg width="226" height="221" viewBox="0 0 226 221" xmlns="http://www.w3.org/2000/svg" xmlns:xlink="http://www.w3.org/1999/xlink"><svg width="14" height="14" viewBox="-1 -1 14 14" id="caret" x="208" y="153" xmlns="http://www.w3.org/2000/svg"><g fill="none" fill-rule="evenodd"><path d="M0 0h12v12H0z"/><path d="M6.123 8.834l-1.06-1.061L1.35 4.061 2.41 3l3.713 3.713L9.835 3l1.06 1.06-4.772 4.774z" fill="#98A3B7"/></g></svg><svg width="14" height="14" viewBox="-1 -1 14 14" id="caret-dark" x="208" y="101" xmlns="http://www.w3.org/2000/svg"><g fill="none" fill-rule="evenodd"><path d="M0 0h12v12H0z"/><path d="M6.123 8.834l-1.06-1.061L1.35 4.061 2.41 3l3.713 3.713L9.835 3l1.06 1.06-4.772 4.774z" fill="#fff"/></g></svg><svg width="14" height="14" viewBox="-1 -1 14 14" id="caret-hover" x="208" y="167" xmlns="http://www.w3.org/2000/svg"><g fill="none" fill-rule="evenodd"><path d="M0 0h12v12H0z"/><path d="M6.123 8.834l-1.06-1.061L1.35 4.061 2.41 3l3.713 3.713L9.835 3l1.06 1.06-4.772 4.774z" fill="#0052D9"/></g></svg><svg width="18" height="18" viewBox="-1 -1 18 18" id="clear" x="162" y="190" xmlns="http://www.w3.org/2000/svg"><path d="M12.667 2L14 3.294 9.152 8 14 12.706 12.667 14 8 9.47 3.333 14 2 12.706l4.667-4.53.18-.176-.18-.176L2 3.294 3.333 2 8 6.53 12.667 2z" fill="#0052D9" fill-rule="evenodd"/></svg><svg width="128" height="20" viewBox="-1 -1 128 20" id="college-logo-pc" y="40" xmlns="http://www.w3.org/2000/svg"><g fill="#FFF" fill-rule="nonzero"><path d="M14.64 3.9h2.025V2.31H10.5c-.27-.57-.57-1.125-.75-1.56H7.32c.21.465.495 1.005.81 1.5H1.905V3.9H4.5C5.115 4.92 6 6.75 6.66 7.575H2.79c.086 3.17-.35 6.332-1.29 9.36h2.37c.625-2.55.982-5.16 1.065-7.785H17.19V7.575h-4.275C13.5 6.57 14.19 4.95 14.64 3.9zM9 7.575c-.765-1.02-1.755-2.73-2.34-3.675h5.565a36.585 36.585 0 0 1-1.5 3.675H9zM23.61 12.285c-.735-3-1.5-6.195-1.965-8.91H19.62c.525 2.73 1.2 6 1.86 8.91h2.13z"/><path d="M30.225 1.005h-2.07l-.045 13.89h-2.04V1.005H24l-.06 13.89h-4.785v1.755H35.34l.015-1.755H30.24z"/><path d="M34.695 3.375h-2.1c-.51 3-1.215 6.15-1.965 8.91h2.16a112.84 112.84 0 0 0 1.905-8.91zM50.73 6.915c0-.915-.255-1.335-1.215-1.335h-6.81l.375-2.565h9.51v-1.62H37.5v1.62h3.525c-.42 3.135-.975 6.225-1.5 9.36h8.685c-.21.93-.36 1.875-.495 2.76h-10.5v1.62h15.9v-1.62H49.89c.36-2.835.66-5.655.84-8.22zM48.27 10.8h-6.435c.225-1.23.435-2.43.615-3.645h5.835c.255 0 .345.105.315.45-.075.885-.165 1.995-.33 3.195zM62.88 12.9v-1.5l-1.11.285v-9h1.05v-1.5h-7.5v1.5h1.095V13.05l-1.14.255v1.5c1.5-.33 3.12-.705 4.725-1.11v3.255h1.89V13.2l.99-.3zm-3-10.32v2.205h-1.65v-2.22l1.65.015zm-1.65 3.705h1.68V8.49H58.2l.03-2.205zm0 6.24v-2.55h1.71v2.13l-1.71.42z"/><path d="M71.04 10.29V8.67h-3.36c0-.93.09-1.875.09-2.85h3V4.17h-2.055c.45-1.05.87-2.13 1.305-3.42h-2.13a24.09 24.09 0 0 1-1.065 3.315L65.385.75H63.48l1.35 3.42h-2.175v1.65h3.075c.03.95 0 1.903-.09 2.85h-3.06v1.62h3a16.5 16.5 0 0 1-3 6.66h2.37c1-1.617 1.749-3.378 2.22-5.22.615 1.8 1.335 3.63 2.04 5.22h2.31a46.665 46.665 0 0 1-3.18-6.66h2.7zM87.36 1.08H73.77l-.09 15.87h2.1v-3.27h1.815c.315-.75.78-2.025 1.17-3.165.345 1.02.765 2.28 1.095 3.165h2.64c.36-.87.795-2.1 1.17-3.225.375 1.05.885 2.355 1.245 3.225h1.65v1.68h-2.67v1.59h4.845l-.075-14.7c0-.84-.165-1.17-1.305-1.17zm-6.195 11.67c-.525-1.335-1.095-2.85-1.5-3.915.54-1.365 1.05-2.715 1.5-3.945.495 1.245 1.065 2.565 1.59 3.795a33.48 33.48 0 0 1-1.59 4.065zM84.66 8.7a42.57 42.57 0 0 0 1.725-4.62h-1.89c-.18.795-.48 2.055-.78 3-.42-.96-.87-2.265-1.11-3h-3c-.21.9-.525 2.07-.84 3-.36-1.005-.69-2.13-.93-3h-1.68c.495 1.425 1.125 3.15 1.725 4.68a41.61 41.61 0 0 1-2.085 4.665V2.655h10.5c.21 0 .285 0 .27.3v10.5c-.615-1.5-1.425-3.405-1.905-4.8V8.7zM93.45 5.745h11.28c.24 0 .315.09.315.3v2.28h1.995v-2.43c0-1.5-.27-1.68-1.74-1.68h-1.98A31.725 31.725 0 0 0 105.525.75h-2.505a27.345 27.345 0 0 1-1.98 3.465h-.285c-.54-.96-1.365-2.595-1.83-3.465H96.87c.42.93 1.17 2.505 1.665 3.465H96.45c-.63-.99-1.5-2.535-1.95-3.465h-2.115c.48.99 1.29 2.505 1.83 3.465H91.5V8.25h1.95V5.745z"/><path d="M107.34 11.025h-7.035v-.105a44.083 44.083 0 0 0 3.405-1.905c.297-.158.51-.437.585-.765.03-.274.03-.55 0-.825 0-.3-.165-.45-.555-.45h-9v1.5h6.3c.255 0 .27 0 .105.15a24.435 24.435 0 0 1-2.88 1.5v.795h-7.08v1.5h7.11v2.94H96.09v1.59h4.26v-4.38h7.02l-.03-1.545zM111.705 5.25h10.905a.195.195 0 0 1 .21.21v2.49h2.085V4.8c0-.825-.285-1.02-1.05-1.02h-2.1a21.18 21.18 0 0 0 1.5-2.655h-2.34a24.45 24.45 0 0 1-1.5 2.655h-1.14v-3h-2.07v3h-1.23a40.727 40.727 0 0 1-1.8-2.655H111c.51.855 1.23 1.98 1.68 2.655h-3v4.14h2.055l-.03-2.67z"/><path d="M118.395 15.405v-1.5h5.34v-1.5h-5.37V11.16h3.81V7.575c0-.75-.24-.99-1.185-.99h-8.61v4.59h3.945v1.32h-5.67v1.5h5.67v1.5H109.5v1.5h15.555v-1.5l-6.66-.09zm-4.08-5.655V8.055H120c.12 0 .15.09.15.21V9.75h-5.835z"/></g></svg><svg width="128" height="20" viewBox="-1 -1 128 20" id="college-logo-pc-white" y="20" xmlns="http://www.w3.org/2000/svg"><g fill="#000" fill-rule="nonzero"><path d="M14.64 3.9h2.025V2.31H10.5c-.27-.57-.57-1.125-.75-1.56H7.32c.21.465.495 1.005.81 1.5H1.905V3.9H4.5C5.115 4.92 6 6.75 6.66 7.575H2.79c.086 3.17-.35 6.332-1.29 9.36h2.37c.625-2.55.982-5.16 1.065-7.785H17.19V7.575h-4.275C13.5 6.57 14.19 4.95 14.64 3.9zM9 7.575c-.765-1.02-1.755-2.73-2.34-3.675h5.565a36.585 36.585 0 0 1-1.5 3.675H9zM23.61 12.285c-.735-3-1.5-6.195-1.965-8.91H19.62c.525 2.73 1.2 6 1.86 8.91h2.13z"/><path d="M30.225 1.005h-2.07l-.045 13.89h-2.04V1.005H24l-.06 13.89h-4.785v1.755H35.34l.015-1.755H30.24z"/><path d="M34.695 3.375h-2.1c-.51 3-1.215 6.15-1.965 8.91h2.16a112.84 112.84 0 0 0 1.905-8.91zM50.73 6.915c0-.915-.255-1.335-1.215-1.335h-6.81l.375-2.565h9.51v-1.62H37.5v1.62h3.525c-.42 3.135-.975 6.225-1.5 9.36h8.685c-.21.93-.36 1.875-.495 2.76h-10.5v1.62h15.9v-1.62H49.89c.36-2.835.66-5.655.84-8.22zM48.27 10.8h-6.435c.225-1.23.435-2.43.615-3.645h5.835c.255 0 .345.105.315.45-.075.885-.165 1.995-.33 3.195zM62.88 12.9v-1.5l-1.11.285v-9h1.05v-1.5h-7.5v1.5h1.095V13.05l-1.14.255v1.5c1.5-.33 3.12-.705 4.725-1.11v3.255h1.89V13.2l.99-.3zm-3-10.32v2.205h-1.65v-2.22l1.65.015zm-1.65 3.705h1.68V8.49H58.2l.03-2.205zm0 6.24v-2.55h1.71v2.13l-1.71.42z"/><path d="M71.04 10.29V8.67h-3.36c0-.93.09-1.875.09-2.85h3V4.17h-2.055c.45-1.05.87-2.13 1.305-3.42h-2.13a24.09 24.09 0 0 1-1.065 3.315L65.385.75H63.48l1.35 3.42h-2.175v1.65h3.075c.03.95 0 1.903-.09 2.85h-3.06v1.62h3a16.5 16.5 0 0 1-3 6.66h2.37c1-1.617 1.749-3.378 2.22-5.22.615 1.8 1.335 3.63 2.04 5.22h2.31a46.665 46.665 0 0 1-3.18-6.66h2.7zM87.36 1.08H73.77l-.09 15.87h2.1v-3.27h1.815c.315-.75.78-2.025 1.17-3.165.345 1.02.765 2.28 1.095 3.165h2.64c.36-.87.795-2.1 1.17-3.225.375 1.05.885 2.355 1.245 3.225h1.65v1.68h-2.67v1.59h4.845l-.075-14.7c0-.84-.165-1.17-1.305-1.17zm-6.195 11.67c-.525-1.335-1.095-2.85-1.5-3.915.54-1.365 1.05-2.715 1.5-3.945.495 1.245 1.065 2.565 1.59 3.795a33.48 33.48 0 0 1-1.59 4.065zM84.66 8.7a42.57 42.57 0 0 0 1.725-4.62h-1.89c-.18.795-.48 2.055-.78 3-.42-.96-.87-2.265-1.11-3h-3c-.21.9-.525 2.07-.84 3-.36-1.005-.69-2.13-.93-3h-1.68c.495 1.425 1.125 3.15 1.725 4.68a41.61 41.61 0 0 1-2.085 4.665V2.655h10.5c.21 0 .285 0 .27.3v10.5c-.615-1.5-1.425-3.405-1.905-4.8V8.7zM93.45 5.745h11.28c.24 0 .315.09.315.3v2.28h1.995v-2.43c0-1.5-.27-1.68-1.74-1.68h-1.98A31.725 31.725 0 0 0 105.525.75h-2.505a27.345 27.345 0 0 1-1.98 3.465h-.285c-.54-.96-1.365-2.595-1.83-3.465H96.87c.42.93 1.17 2.505 1.665 3.465H96.45c-.63-.99-1.5-2.535-1.95-3.465h-2.115c.48.99 1.29 2.505 1.83 3.465H91.5V8.25h1.95V5.745z"/><path d="M107.34 11.025h-7.035v-.105a44.083 44.083 0 0 0 3.405-1.905c.297-.158.51-.437.585-.765.03-.274.03-.55 0-.825 0-.3-.165-.45-.555-.45h-9v1.5h6.3c.255 0 .27 0 .105.15a24.435 24.435 0 0 1-2.88 1.5v.795h-7.08v1.5h7.11v2.94H96.09v1.59h4.26v-4.38h7.02l-.03-1.545zM111.705 5.25h10.905a.195.195 0 0 1 .21.21v2.49h2.085V4.8c0-.825-.285-1.02-1.05-1.02h-2.1a21.18 21.18 0 0 0 1.5-2.655h-2.34a24.45 24.45 0 0 1-1.5 2.655h-1.14v-3h-2.07v3h-1.23a40.727 40.727 0 0 1-1.8-2.655H111c.51.855 1.23 1.98 1.68 2.655h-3v4.14h2.055l-.03-2.67z"/><path d="M118.395 15.405v-1.5h5.34v-1.5h-5.37V11.16h3.81V7.575c0-.75-.24-.99-1.185-.99h-8.61v4.59h3.945v1.32h-5.67v1.5h5.67v1.5H109.5v1.5h15.555v-1.5l-6.66-.09zm-4.08-5.655V8.055H120c.12 0 .15.09.15.21V9.75h-5.835z"/></g></svg><svg width="26" height="26" viewBox="-1 -1 26 26" id="icon-affix-close" x="180" y="90" xmlns="http://www.w3.org/2000/svg"><g fill="none" fill-rule="evenodd"><g><circle stroke="#FFF" fill-opacity=".2" fill="#000" cx="12" cy="12" r="11.5"/><path d="M4 4h16v16H4z"/></g><path d="M8.948 8.163L12 11.214l3.052-3.051a.555.555 0 1 1 .785.785L12.786 12l3.051 3.052a.556.556 0 0 1-.785.785L12 12.786l-3.052 3.051a.555.555 0 1 1-.785-.785L11.214 12 8.163 8.948a.556.556 0 0 1 .785-.785z" fill="#FFF" fill-rule="nonzero"/></g></svg><svg width="26" height="26" viewBox="-1 -1 26 26" id="icon-affix-close-active" x="154" y="90" xmlns="http://www.w3.org/2000/svg"><g fill="none" fill-rule="evenodd"><g><circle stroke="#FFF" fill-opacity=".6" fill="#000" cx="12" cy="12" r="11.5"/><path d="M4 4h16v16H4z"/></g><path d="M8.948 8.163L12 11.214l3.052-3.051a.555.555 0 1 1 .785.785L12.786 12l3.051 3.052a.556.556 0 0 1-.785.785L12 12.786l-3.052 3.051a.555.555 0 1 1-.785-.785L11.214 12 8.163 8.948a.556.556 0 0 1 .785-.785z" fill="#FFF" fill-rule="nonzero"/></g></svg><svg width="18" height="18" viewBox="-1 -1 18 18" id="icon-arrow-right" x="108" y="190" xmlns="http://www.w3.org/2000/svg"><path fill="#999" d="M8.7 8L4.5 3.876 5.9 2.5 11.5 8l-1.4 1.376L5.9 13.5l-1.4-1.376z"/></svg><svg width="18" height="18" viewBox="-1 -1 18 18" id="icon-arrow-right-blue" x="126" y="190" xmlns="http://www.w3.org/2000/svg"><path fill="#0052D9" d="M8.7 8L4.5 3.876 5.9 2.5 11.5 8l-1.4 1.376L5.9 13.5l-1.4-1.376z"/></svg><svg width="14" height="10" viewBox="-1 -1 14 10" id="icon-arrow-s-db" x="208" y="181" xmlns="http://www.w3.org/2000/svg"><g fill="#7C848E" fill-rule="evenodd" opacity=".9"><path d="M3.547 4L0 1.031 1.227 0 6 4 1.227 8 0 6.969zM9.547 4L6 1.031 7.227 0 12 4 7.227 8 6 6.969z"/></g></svg><svg width="14" height="10" viewBox="-1 -1 14 10" id="icon-arrow-s-db-blue" x="208" y="191" xmlns="http://www.w3.org/2000/svg"><g fill="#0052D9" fill-rule="evenodd" opacity=".9"><path d="M3.547 4L0 1.031 1.227 0 6 4 1.227 8 0 6.969zM9.547 4L6 1.031 7.227 0 12 4 7.227 8 6 6.969z"/></g></svg><svg width="18" height="18" viewBox="-1 -1 18 18" id="icon-category-trigger" x="93" y="100" xmlns="http://www.w3.org/2000/svg"><g fill="none" fill-rule="evenodd"><path d="M0 0h16v16H0z"/><path fill="#000" d="M3.757 6L8 10.243 12.243 6z"/></g></svg><svg width="18" height="18" viewBox="-1 -1 18 18" id="icon-category-trigger-blue" x="18" y="190" xmlns="http://www.w3.org/2000/svg"><g fill="none" fill-rule="evenodd"><path d="M0 0h16v16H0z"/><path fill="#0052D9" d="M3.757 6L8 10.243 12.243 6z"/></g></svg><svg width="13" height="13" viewBox="-1 -1 13 13" id="icon-clear" x="111" y="100" xmlns="http://www.w3.org/2000/svg"><g fill="#7C848E" fill-rule="evenodd"><path d="M9.9 0L0 9.9l.707.707 9.9-9.899z"/><path d="M.707 0L0 .707l9.9 9.9.706-.706V9.9z"/></g></svg><svg width="13" height="13" viewBox="-1 -1 13 13" id="icon-clear-#0052D9" y="208" xmlns="http://www.w3.org/2000/svg"><g fill="#0052D9" fill-rule="evenodd"><path d="M9.9 0L0 9.9l.707.707 9.9-9.899z"/><path d="M.707 0L0 .707l9.9 9.9.706-.706V9.9z"/></g></svg><svg width="26" height="26" viewBox="-1 -1 26 26" id="icon-download" x="128" y="90" xmlns="http://www.w3.org/2000/svg"><g fill="none" fill-rule="evenodd"><g><circle stroke="#FFF" fill-opacity=".2" fill="#000" cx="12" cy="12" r="11.5"/><path d="M4 4h16v16H4z"/></g><path d="M8.948 8.163L12 11.214l3.052-3.051a.555.555 0 1 1 .785.785L12.786 12l3.051 3.052a.556.556 0 0 1-.785.785L12 12.786l-3.052 3.051a.555.555 0 1 1-.785-.785L11.214 12 8.163 8.948a.556.556 0 0 1 .785-.785z" fill="#FFF" fill-rule="nonzero"/></g></svg><svg width="26" height="26" viewBox="-1 -1 26 26" id="icon-download-active" x="178" y="58" xmlns="http://www.w3.org/2000/svg"><g fill="none" fill-rule="evenodd"><g><circle stroke="#FFF" fill-opacity=".6" fill="#000" cx="12" cy="12" r="11.5"/><path d="M4 4h16v16H4z"/></g><path d="M8.948 8.163L12 11.214l3.052-3.051a.555.555 0 1 1 .785.785L12.786 12l3.051 3.052a.556.556 0 0 1-.785.785L12 12.786l-3.052 3.051a.555.555 0 1 1-.785-.785L11.214 12 8.163 8.948a.556.556 0 0 1 .785-.785z" fill="#FFF" fill-rule="nonzero"/></g></svg><svg width="50" height="50" viewBox="-1 -1 50 50" id="icon-edit-manual" x="128" y="40" xmlns="http://www.w3.org/2000/svg"><path d="M30 3l15 3v39l-15-3-12 3-15-3V3l15 3 12-3zM9 10.319V37.08l6 1.2V11.519l-6-1.2zm18-.384l-6 1.5v26.629l6-1.5V9.935zm6-.216v26.762l6 1.2V10.92l-6-1.2z" fill="#FFF" fill-rule="evenodd"/></svg><svg width="50" height="50" viewBox="-1 -1 50 50" id="icon-edit-source" y="118" xmlns="http://www.w3.org/2000/svg"><g fill="none" fill-rule="evenodd"><path d="M0 0h48v48H0z"/><path d="M24 3l3 6h21v15h-6v-9H23.292l-3-6H6v30h18v6H0V3h24zm7.315 18c3.482 0 6.784 2.064 8.187 5.473a8.784 8.784 0 0 1 .026 6.62l5.942 5.95a3.478 3.478 0 0 1 .01 4.93A3.49 3.49 0 0 1 43.003 45a3.495 3.495 0 0 1-2.469-1.015l-5.865-5.981a8.911 8.911 0 0 1-3.34.655h-.021a8.761 8.761 0 0 1-6.217-2.586 8.82 8.82 0 0 1-1.919-9.616l.45-1.09.013-.034 4.327 4.33c.439.424 1.007.634 1.575.634a2.264 2.264 0 0 0 1.629-3.84l-4.3-4.306-.026-.025 1.124-.465a8.847 8.847 0 0 1 3.352-.66z" fill="#FFF" fill-rule="nonzero"/></g></svg><svg data-name="图层 1" width="18" height="18" viewBox="-1 -1 18 18" id="icon-explain" x="178" y="168" xmlns="http://www.w3.org/2000/svg"><path fill="#0052d9" d="M9 7H6v1h1v4h1.917l1-1H9V7zM7 5.99h2v-2H7v2z"/><path d="M8 2a6 6 0 1 1-6 6 6.007 6.007 0 0 1 6-6m0-2a8 8 0 1 0 8 8 8 8 0 0 0-8-8z" fill="#0052d9"/></svg><svg width="18" height="18" viewBox="-1 -1 18 18" id="icon-going" y="190" xmlns="http://www.w3.org/2000/svg"><g fill="none" fill-rule="evenodd"><path d="M0 0h16v16H0z"/><path fill="#0ABF5B" d="M1 8h2v6H1zM5 2h2v12H5zM9 6h2v8H9zM13 2h2v12h-2z"/></g></svg><svg width="14" height="14" viewBox="-1 -1 14 14" id="icon-menu-arrow" x="208" y="87" xmlns="http://www.w3.org/2000/svg"><g fill="none" fill-rule="evenodd"><path d="M0 12V0h12v12z"/><path d="M8.834 5.877l-1.061 1.06-3.712 3.713L3 9.59l3.713-3.713L3 2.165l1.06-1.06 4.774 4.772z" fill="#98A3B7"/></g></svg><svg width="14" height="14" viewBox="-1 -1 14 14" id="icon-menu-arrow-blue" x="208" y="139" xmlns="http://www.w3.org/2000/svg"><g fill="none" fill-rule="evenodd"><path d="M0 12V0h12v12z"/><path d="M8.834 5.877l-1.061 1.06-3.712 3.713L3 9.59l3.713-3.713L3 2.165l1.06-1.06 4.774 4.772z" fill="#0052D9"/></g></svg><svg width="18" height="18" viewBox="-1 -1 18 18" id="icon-more-right-active" x="54" y="190" xmlns="http://www.w3.org/2000/svg"><path fill="#0052D9" fill-rule="evenodd" d="M5 6l3 2-3 2v2l6-4-6-4z"/></svg><svg width="18" height="18" viewBox="-1 -1 18 18" id="icon-more-right-normal" x="72" y="190" xmlns="http://www.w3.org/2000/svg"><path fill="#666" fill-rule="evenodd" d="M5 6l3 2-3 2v2l6-4-6-4z"/></svg><svg width="18" height="18" viewBox="-1 -1 18 18" id="icon-more-right-white" x="90" y="190" xmlns="http://www.w3.org/2000/svg"><path fill="#fff" fill-rule="evenodd" d="M5 6l3 2-3 2v2l6-4-6-4z"/></svg><svg width="29" height="18" viewBox="-1 -1 29 18" id="icon-nav-hot" x="178" y="40" xmlns="http://www.w3.org/2000/svg"><g fill="none" fill-rule="evenodd" transform="translate(0 2)"><path fill="#FF7800" stroke="#FF7800" d="M2.5.5v4H.809L2.5 7.882V12.5h24V.5h-24z"/><path fill="#FFF" d="M6 6h4V3h1v7h-1V7H6v3H5V3h1v3zM19 3h5v1h-5z"/><path fill="#FFF" d="M21 3h1v7h-1z"/><circle cx="15.5" cy="6.5" r="3" stroke="#FFF"/></g></svg><svg width="14" height="12" viewBox="-1 -1 14 12" id="icon-quote-left" x="208" y="127" xmlns="http://www.w3.org/2000/svg"><path d="M9.6 10c.67 0 1.2-.214 1.624-.607.423-.429.67-.964.67-1.607s-.212-1.143-.6-1.572c-.423-.428-.953-.607-1.553-.607-.353 0-.635.036-.776.107 0-.857.247-1.643.776-2.321A4.169 4.169 0 0 1 12 1.786V0c-1.553.393-2.753 1.179-3.67 2.357C7.411 3.5 6.987 4.893 6.987 6.5c0 1 .212 1.857.67 2.5.495.643 1.13 1 1.942 1zm-6.988 0c.706 0 1.27-.214 1.694-.607.388-.429.6-.964.6-1.607s-.212-1.143-.635-1.572c-.424-.428-.918-.607-1.483-.607-.388 0-.67.036-.812.107 0-.857.248-1.643.812-2.357.53-.75 1.27-1.286 2.224-1.571V0C3.459.393 2.259 1.179 1.376 2.357.46 3.5 0 4.893 0 6.5 0 7.536.212 8.357.706 9c.459.643 1.094 1 1.906 1z" fill="#FFF" fill-rule="nonzero"/></svg><svg width="14" height="12" viewBox="-1 -1 14 12" id="icon-quote-right" x="208" y="115" xmlns="http://www.w3.org/2000/svg"><path d="M2.4 0C1.73 0 1.2.214.776.607c-.423.429-.67.964-.67 1.607s.212 1.143.6 1.572c.423.428.953.607 1.553.607.353 0 .635-.036.776-.107 0 .857-.247 1.643-.776 2.321A4.169 4.169 0 0 1 0 8.214V10c1.553-.393 2.753-1.179 3.67-2.357C4.589 6.5 5.013 5.107 5.013 3.5c0-1-.212-1.857-.67-2.5C3.846.357 3.211 0 2.4 0zm6.988 0c-.706 0-1.27.214-1.694.607-.388.429-.6.964-.6 1.607s.212 1.143.635 1.572c.424.428.918.607 1.483.607.388 0 .67-.036.812-.107 0 .857-.248 1.643-.812 2.357-.53.75-1.27 1.286-2.224 1.571V10c1.553-.393 2.753-1.179 3.636-2.357C11.54 6.5 12 5.107 12 3.5c0-1.036-.212-1.857-.706-2.5-.459-.643-1.094-1-1.906-1z" fill="#FFF" fill-rule="nonzero"/></svg><svg id="icon-tc-dark" width="93" height="18" viewBox="-1 -1 93 18" y="100" xmlns="http://www.w3.org/2000/svg"><style>.best0{fill:#495770}</style><g id="beXMLID_80_"><path id="beXMLID_81_" class="best0" d="M83.8 1.9l-.6 3h-3.8l1.5 2h2l-1.6 8.8h3.4L86.2 7h4.3l-6.7-5.1zM16.4 0H.9L.5 2.3h6L4 15.8h3.4L9.9 2.3H16l.4-2.3zM19 4.7c-4.3 0-7.1 2.6-7.7 5.5-.6 3.3 1.6 5.7 5.9 5.7 2 0 3.8-.3 5.3-1.1l.5-2.5c-1.5 1-3.3 1.5-4.9 1.5-2.2 0-3.9-.9-3.6-2.8h9c.1-.2.2-.6.3-1.1.5-2.3-.4-5.2-4.8-5.2zm1.7 4.5h-5.9c.4-1.1 1.5-2.6 3.6-2.6 2.3 0 2.5 1.6 2.3 2.6zm13.4-4.5c-2.1 0-3.7.8-4.5 1.7h-.1l-3-1.7c-.1.9-.3 2.2-.5 3.5l-1.4 7.6H28l1.2-6.4.3-.9c.5-.8 1.6-1.6 2.9-1.6 1.9 0 2.4 1.2 2.1 2.7l-1.1 6.1h3.4L38 9.4c.6-3.5-1.6-4.7-3.9-4.7zm40.9 0c-2.1 0-3.7.8-4.5 1.7h-.1l-3-1.7c-.1.9-.3 2.2-.5 3.5l-1.4 7.6H69l1.2-6.4.3-.9c.5-.8 1.6-1.6 2.9-1.6 1.9 0 2.4 1.2 2.1 2.7l-1.1 6.1h3.4L79 9.4c.6-3.5-1.6-4.7-4-4.7zm-15.1 0c-4.3 0-7.1 2.6-7.7 5.5-.6 3.3 1.6 5.7 5.9 5.7 2 0 3.8-.3 5.3-1.1l.5-2.5c-1.5 1-3.3 1.5-4.9 1.5-2.2 0-3.9-.9-3.6-2.8h9c.1-.2.2-.6.3-1.1.5-2.3-.4-5.2-4.8-5.2zm1.8 4.5h-5.9c.4-1.1 1.5-2.6 3.6-2.6 2.3 0 2.5 1.6 2.3 2.6zm-22.3 1c-.6 3.3 1.9 5.8 6.1 5.8 1.7 0 3.7-.5 4.5-.7l.6-2.9c-1.2 1.2-2.8 1.4-3.9 1.4-2.3 0-4.1-1.3-3.7-3.5.4-2 2.4-3.5 5-3.5 1.1 0 2.5.3 3.4 1.5l.5-2.9c-.7-.3-1.9-.6-3.7-.6-4.8-.1-8.2 2.2-8.8 5.4z"/></g></svg><svg width="18" height="18" viewBox="-1 -1 18 18" id="icon-toolbar-compare" x="180" y="190" xmlns="http://www.w3.org/2000/svg"><g fill="none" fill-rule="evenodd"><path d="M0 0h16v16H0z"/><path d="M15 1v14H1V1h14zm-2 2H8v10h5V3z" fill="#737680"/></g></svg><svg width="18" height="18" viewBox="-1 -1 18 18" id="icon-toolbar-compare-primary" x="208" xmlns="http://www.w3.org/2000/svg"><g fill="none" fill-rule="evenodd"><path d="M0 0h16v16H0z"/><path d="M15 1v14H1V1h14zm-2 2H8v10h5V3z" fill="#006EFF"/></g></svg><svg width="18" height="18" viewBox="-1 -1 18 18" id="icon-toolbar-copy" x="208" y="18" xmlns="http://www.w3.org/2000/svg"><g fill="none" fill-rule="evenodd"><path d="M0 0h16v16H0z"/><path d="M12.75 5H6v10h9V5h-2.25zm.25 8H8V7h5v6z" fill="#737680" fill-rule="nonzero"/><path fill="#737680" fill-rule="nonzero" d="M11 1H2v10h2V3h7z"/></g></svg><svg width="18" height="18" viewBox="-1 -1 18 18" id="icon-toolbar-copy-primary" x="104" y="80" xmlns="http://www.w3.org/2000/svg"><g fill="none" fill-rule="evenodd"><path d="M0 0h16v16H0z"/><path d="M12.75 5H6v10h9V5h-2.25zm.25 8H8V7h5v6z" fill="#006EFF" fill-rule="nonzero"/><path fill="#006EFF" fill-rule="nonzero" d="M11 1H2v10h2V3h7z"/></g></svg><svg width="18" height="18" viewBox="-1 -1 18 18" id="icon-warning" x="104" y="60" xmlns="http://www.w3.org/2000/svg"><g fill="none" fill-rule="evenodd"><path d="M9.73 2.664l4.839 8.332A2 2 0 0 1 12.839 14H3.161a2 2 0 0 1-1.73-3.004l4.84-8.332a2 2 0 0 1 3.458 0z" stroke="#04C8DC" stroke-width="2" stroke-linecap="round" stroke-linejoin="round"/><path fill="#04C8DC" fill-rule="nonzero" d="M7 5h2v4H7zM7 10h2v2H7z"/></g></svg><svg width="18" height="18" viewBox="-1 -1 18 18" id="lang" x="88" y="168" xmlns="http://www.w3.org/2000/svg"><path d="M8 0a8 8 0 1 1 0 16A8 8 0 0 1 8 0zM5.21 5.133c-.497-.147-1.305-.199-2.402-.139a6 6 0 1 0 11.12 2.08c-1.412-.16-2.84.201-3.398.77-.526.537-.545.643-.359 2.324.143 1.293-.607 2.413-1.726 2.88-1.208.503-2.544.085-2.917-1.234-.08-.28-.148-.358-.48-.577-.365-.24-.35-.23-.496-.344-.55-.428-.954-.973-1.252-1.78-.514-1.391.004-2.202 1.262-3.008l.213-.136c.537-.344.694-.513.723-.741.003-.018.013-.01-.127-.049zM8 2a5.972 5.972 0 0 0-3.336 1.012c1.986.178 3.017.928 2.818 2.472-.128.99-.631 1.53-1.627 2.168l-.213.136c-.562.36-.565.364-.466.63.168.456.345.695.603.895.085.067.07.057.371.255.695.46 1.072.886 1.302 1.702.005.014.016.018.224-.069.338-.14.547-.453.507-.813-.245-2.22-.13-2.874.919-3.944.86-.879 2.447-1.401 4.114-1.41A5.995 5.995 0 0 0 8 2z" fill="#98A3B7" fill-rule="nonzero"/></svg><svg width="18" height="18" viewBox="-1 -1 18 18" id="lang-dark" x="106" y="168" xmlns="http://www.w3.org/2000/svg"><path d="M8 0a8 8 0 1 1 0 16A8 8 0 0 1 8 0zM5.21 5.133c-.497-.147-1.305-.199-2.402-.139a6 6 0 1 0 11.12 2.08c-1.412-.16-2.84.201-3.398.77-.526.537-.545.643-.359 2.324.143 1.293-.607 2.413-1.726 2.88-1.208.503-2.544.085-2.917-1.234-.08-.28-.148-.358-.48-.577-.365-.24-.35-.23-.496-.344-.55-.428-.954-.973-1.252-1.78-.514-1.391.004-2.202 1.262-3.008l.213-.136c.537-.344.694-.513.723-.741.003-.018.013-.01-.127-.049zM8 2a5.972 5.972 0 0 0-3.336 1.012c1.986.178 3.017.928 2.818 2.472-.128.99-.631 1.53-1.627 2.168l-.213.136c-.562.36-.565.364-.466.63.168.456.345.695.603.895.085.067.07.057.371.255.695.46 1.072.886 1.302 1.702.005.014.016.018.224-.069.338-.14.547-.453.507-.813-.245-2.22-.13-2.874.919-3.944.86-.879 2.447-1.401 4.114-1.41A5.995 5.995 0 0 0 8 2z" fill="#fff" fill-rule="nonzero"/></svg><svg width="18" height="18" viewBox="-1 -1 18 18" id="lang-hover" x="124" y="168" xmlns="http://www.w3.org/2000/svg"><path d="M8 0a8 8 0 1 1 0 16A8 8 0 0 1 8 0zM5.21 5.133c-.497-.147-1.305-.199-2.402-.139a6 6 0 1 0 11.12 2.08c-1.412-.16-2.84.201-3.398.77-.526.537-.545.643-.359 2.324.143 1.293-.607 2.413-1.726 2.88-1.208.503-2.544.085-2.917-1.234-.08-.28-.148-.358-.48-.577-.365-.24-.35-.23-.496-.344-.55-.428-.954-.973-1.252-1.78-.514-1.391.004-2.202 1.262-3.008l.213-.136c.537-.344.694-.513.723-.741.003-.018.013-.01-.127-.049zM8 2a5.972 5.972 0 0 0-3.336 1.012c1.986.178 3.017.928 2.818 2.472-.128.99-.631 1.53-1.627 2.168l-.213.136c-.562.36-.565.364-.466.63.168.456.345.695.603.895.085.067.07.057.371.255.695.46 1.072.886 1.302 1.702.005.014.016.018.224-.069.338-.14.547-.453.507-.813-.245-2.22-.13-2.874.919-3.944.86-.879 2.447-1.401 4.114-1.41A5.995 5.995 0 0 0 8 2z" fill="#0053D9" fill-rule="nonzero"/></svg><svg width="9" height="15" viewBox="-1 -1 9 15" id="link-arrow" x="208" y="72" xmlns="http://www.w3.org/2000/svg"><path d="M4.228 6.5l-4.242 4.243L1.4 12.158l5.657-5.657-1.414-1.415L1.4.844-.014 2.259 4.228 6.5z" fill="#00A4FF" fill-rule="evenodd"/></svg><svg width="8" height="12" viewBox="-1 -1 8 12" id="link-arrow" x="217" y="72" xmlns="http://www.w3.org/2000/svg"><path d="M3.6 5L0 1.25 1.2 0 6 5 4.8 6.25 1.2 10 0 8.75z" fill="#0052d9" fill-rule="evenodd"/></svg><svg width="80" height="20" viewBox="-1 -1 80 20" id="logo" x="128" y="20" xmlns="http://www.w3.org/2000/svg"><g fill-rule="nonzero" fill="none"><g fill="#253554"><path d="M60.471 1.7h-9.07V3h2.752v4.8h-3.261v1.3h3.26V17h1.53V9.1h3.465v7.6h2.751v-1.3h-1.223V1.7h-.204zM55.58 7.6V3h3.567v4.8h-3.465v-.2h-.102zM35.198 13.3h7.235v1.3h-7.235zM30.204 10.9c0 2.3-.102 4.2-.612 5.7 0 .1 0 .1.102.1h1.325c.51-2.2.51-4 .51-5.3h1.834v4H32.14c-.102 0-.102 0-.102.1l.408 1.2h2.344v-15h-4.484l-.102 9.2zm1.427-.6v-3h1.834v3.2h-1.834v-.2zM33.465 3v3.1h-1.834V3h1.834z"/><path d="M42.943 7h1.732V5.8h-5.197c.102-.4.204-.9.51-1.2h4.483V3.4H43.25c.101-.7.51-1.6.51-1.6 0-.1 0-.1-.103-.1h-1.12l-.51 1.7h-1.631c.102-.7.204-1.5.408-2.2 0-.1 0-.1-.102-.1h-1.223c-.102.9-.204 1.7-.51 2.4h-.917l-.51-1.7h-1.12c-.102 0-.102 0-.102.1s.203.9.51 1.6h-1.224v1.2h2.854c-.102.4-.204.9-.51 1.2h-2.751v1.2h2.14c-.918 1.2-1.733 1.7-2.14 2v1.3c0 .1.101.1.203 0 .408-.1.918-.5 1.223-.9h4.994v1.8h-3.873l.102-1.1c0-.1 0-.1-.102-.1h-1.223l-.102 2.2c0 .1 0 .1.102.1h6.727v3.2h-2.956c-.102 0-.102 0-.102.1l.408 1.2h4.28v-5.6h-1.63V8.9c.611.5 1.222 1 1.834 1.2.102.1.204.1.204 0V8.8c-.612-.2-1.529-.7-2.344-1.8zm-1.63 0c.203.5.61 1 1.018 1.3H37.95c.408-.4.612-.9 1.02-1.3h2.343zM52.217 12.4l-2.446 1.8V5.8H46.51v1.5h1.834v8.1c-.51.4-.917.5-.917.5l.917 1.1 3.975-2.9-.102-1.7c.305 0 .203-.1 0 0zM48.548 4.5h1.427c.203 0 .203-.1.203-.1L48.14 1.3h-1.528l-.102.1c.102.1 2.038 3.1 2.038 3.1zM64.853 2h11.414v1.5H64.853zM69.032 8.9H78V7.4H63.223v1.5h4.076c-.917 2.2-2.853 7.6-2.955 7.7 0 .1 0 .1.102.1h12.739c.102 0 .102-.1.102-.1l-1.835-4.9h-1.528c-.102 0-.102.1-.102.1 0 .1 1.325 3.5 1.325 3.5H66.79l2.242-6.4z"/></g><g fill="#0053D9"><path d="M21.95 14.7c-.408.4-1.224 1-2.65 1h-8.765c2.65-2.5 4.892-4.6 5.096-4.8.204-.2.713-.7 1.223-1.1 1.019-.9 1.834-1 2.547-1 1.02 0 1.835.4 2.548 1 1.427 1.3 1.427 3.6 0 4.9zm1.732-6.5c-1.02-1.1-2.548-1.8-4.179-1.8-1.426 0-2.65.5-3.77 1.3-.408.4-1.02.8-1.529 1.4-.408.4-9.172 8.8-9.172 8.8.51.1 1.121.1 1.63.1h11.109c.815 0 1.427 0 2.038-.1 1.325-.1 2.65-.6 3.77-1.6 2.345-2.2 2.345-5.9.103-8.1z"/><path d="M9.414 7.6c-1.12-.8-2.242-1.2-3.567-1.2-1.63 0-3.159.7-4.178 1.8-2.242 2.3-2.242 5.9.102 8.2 1.019.9 2.038 1.4 3.261 1.5l2.344-2.2H6.051c-1.325-.1-2.14-.5-2.65-1a3.546 3.546 0 0 1-.101-5c.713-.7 1.528-1 2.547-1 .612 0 1.529.1 2.446 1 .408.4 1.529 1.2 1.936 1.6h.102l1.53-1.5v-.1c-.714-.7-1.835-1.6-2.447-2.1"/><path d="M20.115 5.1c-1.121-3-4.077-5.1-7.44-5.1A7.848 7.848 0 0 0 4.93 6.5c.306 0 .612-.1 1.02-.1.407 0 .916.1 1.324.1.51-2.5 2.752-4.3 5.401-4.3a5.65 5.65 0 0 1 5.096 3.2s.102.1.102 0c.713-.1 1.528-.3 2.242-.3 0 .1 0 .1 0 0"/></g></g></svg><svg width="80" height="20" viewBox="-1 -1 80 20" id="logo-dark" x="128" xmlns="http://www.w3.org/2000/svg"><g fill="#FFF" fill-rule="nonzero"><path d="M60.471 1.7h-9.07V3h2.752v4.8h-3.261v1.3h3.26V17h1.53V9.1h3.465v7.6h2.751v-1.3h-1.223V1.7h-.204zM55.58 7.6V3h3.567v4.8h-3.465v-.2h-.102zM35.198 13.3h7.235v1.3h-7.235zM30.204 10.9c0 2.3-.102 4.2-.612 5.7 0 .1 0 .1.102.1h1.325c.51-2.2.51-4 .51-5.3h1.834v4H32.14c-.102 0-.102 0-.102.1l.408 1.2h2.344v-15h-4.484l-.102 9.2zm1.427-.6v-3h1.834v3.2h-1.834v-.2zM33.465 3v3.1h-1.834V3h1.834z"/><path d="M42.943 7h1.732V5.8h-5.197c.102-.4.204-.9.51-1.2h4.483V3.4H43.25c.101-.7.51-1.6.51-1.6 0-.1 0-.1-.103-.1h-1.12l-.51 1.7h-1.631c.102-.7.204-1.5.408-2.2 0-.1 0-.1-.102-.1h-1.223c-.102.9-.204 1.7-.51 2.4h-.917l-.51-1.7h-1.12c-.102 0-.102 0-.102.1s.203.9.51 1.6h-1.224v1.2h2.854c-.102.4-.204.9-.51 1.2h-2.751v1.2h2.14c-.918 1.2-1.733 1.7-2.14 2v1.3c0 .1.101.1.203 0 .408-.1.918-.5 1.223-.9h4.994v1.8h-3.873l.102-1.1c0-.1 0-.1-.102-.1h-1.223l-.102 2.2c0 .1 0 .1.102.1h6.727v3.2h-2.956c-.102 0-.102 0-.102.1l.408 1.2h4.28v-5.6h-1.63V8.9c.611.5 1.222 1 1.834 1.2.102.1.204.1.204 0V8.8c-.612-.2-1.529-.7-2.344-1.8zm-1.63 0c.203.5.61 1 1.018 1.3H37.95c.408-.4.612-.9 1.02-1.3h2.343zM52.217 12.4l-2.446 1.8V5.8H46.51v1.5h1.834v8.1c-.51.4-.917.5-.917.5l.917 1.1 3.975-2.9-.102-1.7c.305 0 .203-.1 0 0zM48.548 4.5h1.427c.203 0 .203-.1.203-.1L48.14 1.3h-1.528l-.102.1c.102.1 2.038 3.1 2.038 3.1zM64.853 2h11.414v1.5H64.853zM69.032 8.9H78V7.4H63.223v1.5h4.076c-.917 2.2-2.853 7.6-2.955 7.7 0 .1 0 .1.102.1h12.739c.102 0 .102-.1.102-.1l-1.835-4.9h-1.528c-.102 0-.102.1-.102.1 0 .1 1.325 3.5 1.325 3.5H66.79l2.242-6.4z"/><g><path d="M21.95 14.7c-.408.4-1.224 1-2.65 1h-8.765c2.65-2.5 4.892-4.6 5.096-4.8.204-.2.713-.7 1.223-1.1 1.019-.9 1.834-1 2.547-1 1.02 0 1.835.4 2.548 1 1.427 1.3 1.427 3.6 0 4.9zm1.732-6.5c-1.02-1.1-2.548-1.8-4.179-1.8-1.426 0-2.65.5-3.77 1.3-.408.4-1.02.8-1.529 1.4-.408.4-9.172 8.8-9.172 8.8.51.1 1.121.1 1.63.1h11.109c.815 0 1.427 0 2.038-.1 1.325-.1 2.65-.6 3.77-1.6 2.345-2.2 2.345-5.9.103-8.1z"/><path d="M9.414 7.6c-1.12-.8-2.242-1.2-3.567-1.2-1.63 0-3.159.7-4.178 1.8-2.242 2.3-2.242 5.9.102 8.2 1.019.9 2.038 1.4 3.261 1.5l2.344-2.2H6.051c-1.325-.1-2.14-.5-2.65-1a3.546 3.546 0 0 1-.101-5c.713-.7 1.528-1 2.547-1 .612 0 1.529.1 2.446 1 .408.4 1.529 1.2 1.936 1.6h.102l1.53-1.5v-.1c-.714-.7-1.835-1.6-2.447-2.1"/><path d="M20.115 5.1c-1.121-3-4.077-5.1-7.44-5.1A7.848 7.848 0 0 0 4.93 6.5c.306 0 .612-.1 1.02-.1.407 0 .916.1 1.324.1.51-2.5 2.752-4.3 5.401-4.3a5.65 5.65 0 0 1 5.096 3.2s.102.1.102 0c.713-.1 1.528-.3 2.242-.3 0 .1 0 .1 0 0"/></g></g></svg><svg width="128" height="20" viewBox="-1 -1 128 20" id="logo-project" xmlns="http://www.w3.org/2000/svg"><g fill="#000" fill-rule="nonzero"><path d="M14.64 3.9h2.025V2.31H10.5c-.27-.57-.57-1.125-.75-1.56H7.32c.21.465.495 1.005.81 1.5H1.905V3.9H4.5C5.115 4.92 6 6.75 6.66 7.575H2.79c.086 3.17-.35 6.332-1.29 9.36h2.37c.625-2.55.982-5.16 1.065-7.785H17.19V7.575h-4.275C13.5 6.57 14.19 4.95 14.64 3.9zM9 7.575c-.765-1.02-1.755-2.73-2.34-3.675h5.565a36.585 36.585 0 0 1-1.5 3.675H9zM23.61 12.285c-.735-3-1.5-6.195-1.965-8.91H19.62c.525 2.73 1.2 6 1.86 8.91h2.13z"/><path d="M30.225 1.005h-2.07l-.045 13.89h-2.04V1.005H24l-.06 13.89h-4.785v1.755H35.34l.015-1.755H30.24z"/><path d="M34.695 3.375h-2.1c-.51 3-1.215 6.15-1.965 8.91h2.16a112.84 112.84 0 0 0 1.905-8.91zM50.73 6.915c0-.915-.255-1.335-1.215-1.335h-6.81l.375-2.565h9.51v-1.62H37.5v1.62h3.525c-.42 3.135-.975 6.225-1.5 9.36h8.685c-.21.93-.36 1.875-.495 2.76h-10.5v1.62h15.9v-1.62H49.89c.36-2.835.66-5.655.84-8.22zM48.27 10.8h-6.435c.225-1.23.435-2.43.615-3.645h5.835c.255 0 .345.105.315.45-.075.885-.165 1.995-.33 3.195zM62.88 12.9v-1.5l-1.11.285v-9h1.05v-1.5h-7.5v1.5h1.095V13.05l-1.14.255v1.5c1.5-.33 3.12-.705 4.725-1.11v3.255h1.89V13.2l.99-.3zm-3-10.32v2.205h-1.65v-2.22l1.65.015zm-1.65 3.705h1.68V8.49H58.2l.03-2.205zm0 6.24v-2.55h1.71v2.13l-1.71.42z"/><path d="M71.04 10.29V8.67h-3.36c0-.93.09-1.875.09-2.85h3V4.17h-2.055c.45-1.05.87-2.13 1.305-3.42h-2.13a24.09 24.09 0 0 1-1.065 3.315L65.385.75H63.48l1.35 3.42h-2.175v1.65h3.075c.03.95 0 1.903-.09 2.85h-3.06v1.62h3a16.5 16.5 0 0 1-3 6.66h2.37c1-1.617 1.749-3.378 2.22-5.22.615 1.8 1.335 3.63 2.04 5.22h2.31a46.665 46.665 0 0 1-3.18-6.66h2.7zM87.36 1.08H73.77l-.09 15.87h2.1v-3.27h1.815c.315-.75.78-2.025 1.17-3.165.345 1.02.765 2.28 1.095 3.165h2.64c.36-.87.795-2.1 1.17-3.225.375 1.05.885 2.355 1.245 3.225h1.65v1.68h-2.67v1.59h4.845l-.075-14.7c0-.84-.165-1.17-1.305-1.17zm-6.195 11.67c-.525-1.335-1.095-2.85-1.5-3.915.54-1.365 1.05-2.715 1.5-3.945.495 1.245 1.065 2.565 1.59 3.795a33.48 33.48 0 0 1-1.59 4.065zM84.66 8.7a42.57 42.57 0 0 0 1.725-4.62h-1.89c-.18.795-.48 2.055-.78 3-.42-.96-.87-2.265-1.11-3h-3c-.21.9-.525 2.07-.84 3-.36-1.005-.69-2.13-.93-3h-1.68c.495 1.425 1.125 3.15 1.725 4.68a41.61 41.61 0 0 1-2.085 4.665V2.655h10.5c.21 0 .285 0 .27.3v10.5c-.615-1.5-1.425-3.405-1.905-4.8V8.7zM93.45 5.745h11.28c.24 0 .315.09.315.3v2.28h1.995v-2.43c0-1.5-.27-1.68-1.74-1.68h-1.98A31.725 31.725 0 0 0 105.525.75h-2.505a27.345 27.345 0 0 1-1.98 3.465h-.285c-.54-.96-1.365-2.595-1.83-3.465H96.87c.42.93 1.17 2.505 1.665 3.465H96.45c-.63-.99-1.5-2.535-1.95-3.465h-2.115c.48.99 1.29 2.505 1.83 3.465H91.5V8.25h1.95V5.745z"/><path d="M107.34 11.025h-7.035v-.105a44.083 44.083 0 0 0 3.405-1.905c.297-.158.51-.437.585-.765.03-.274.03-.55 0-.825 0-.3-.165-.45-.555-.45h-9v1.5h6.3c.255 0 .27 0 .105.15a24.435 24.435 0 0 1-2.88 1.5v.795h-7.08v1.5h7.11v2.94H96.09v1.59h4.26v-4.38h7.02l-.03-1.545zM111.705 5.25h10.905a.195.195 0 0 1 .21.21v2.49h2.085V4.8c0-.825-.285-1.02-1.05-1.02h-2.1a21.18 21.18 0 0 0 1.5-2.655h-2.34a24.45 24.45 0 0 1-1.5 2.655h-1.14v-3h-2.07v3h-1.23a40.727 40.727 0 0 1-1.8-2.655H111c.51.855 1.23 1.98 1.68 2.655h-3v4.14h2.055l-.03-2.67z"/><path d="M118.395 15.405v-1.5h5.34v-1.5h-5.37V11.16h3.81V7.575c0-.75-.24-.99-1.185-.99h-8.61v4.59h3.945v1.32h-5.67v1.5h5.67v1.5H109.5v1.5h15.555v-1.5l-6.66-.09zm-4.08-5.655V8.055H120c.12 0 .15.09.15.21V9.75h-5.835z"/></g></svg><svg width="104" height="20" viewBox="-1 -1 104 20" id="logo-training" y="80" xmlns="http://www.w3.org/2000/svg"><defs><path id="bsa" d="M0 17.458h101.201V0H0z"/></defs><g fill="none" fill-rule="evenodd"><path d="M25.291.661h-1.529v4.544c.002 2.907.005 8.292-2.25 11.73-.032.048-.003.132.073.132h1.651c2.079-3.79 2.077-8.98 2.076-11.863L25.291.661zM19.803 4.484h1.747c.072 0 .109-.081.067-.138L19.159.959h-1.747c-.064 0-.112.078-.07.135l2.46 3.39" fill="#FFF"/><path d="M22.388 11.141c0-.07-.09-.119-.148-.06l-1.688 1.709V6.176h-4.023v1.55h2.332v6.775l-1.316 1.331 1.103 1.089 3.74-3.784v-1.996z" fill="#FFF"/><mask id="bsb" fill="#fff"><use xlink:href="#bsa"/></mask><path fill="#FFF" mask="url(#bsb)" d="M26.868 16.812h1.69V1.654h-1.69zM31.177 17.066h1.69V.616h-1.69zM11.27 1.875V.39H9.719v1.486H6.254v1.41h8.48v-1.41zM8.285 15.886h4.237v-4.258H8.285v4.258zm-1.55-5.668v7.077h7.337v-7.077H6.735zM13.25 7.436l.885-3.123c.015-.056-.023-.111-.082-.111h-1.497l-.916 3.234H9.349l-.916-3.234H6.936a.085.085 0 0 0-.082.11c.01.04.557 1.97.883 3.123h-1.81v1.41h9.134v-1.41h-1.81zM4.499 6.374v-1.55H3.027V.774H1.478v4.05H.007v1.55h1.471v6.811L0 13.712v1.524c0 .064.065.098.111.082l4.294-1.533V12.26c0-.059-.058-.1-.115-.08l-1.263.451V6.374h1.472zM37.48 4.008h1.748c.07 0 .108-.08.066-.138L36.837.484h-1.748c-.063 0-.111.077-.07.134l2.46 3.39M40.065 10.666c0-.07-.09-.12-.148-.06l-1.689 1.708V5.7h-4.022V7.25h2.332v6.776l-1.316 1.33 1.103 1.09 3.74-3.784v-1.996z"/><path d="M45.425 1.206V.31h-1.69v.895c0 4.814-.414 9.677-5.125 16.036-.041.056.005.133.07.133h1.916c1.822-2.62 3.09-5.197 3.849-7.822.049-.173.095-.345.14-.513.674 2.552 1.869 5.3 3.978 8.335h1.916c.073 0 .106-.083.067-.136-4.708-6.358-5.121-11.22-5.121-16.032M56.107 11.982a.086.086 0 0 0-.142-.064l-1.514 1.305V5.66h-3.508v1.55h1.816v7.47c-.547.47-.942.812-.942.812l1.012 1.175 3.278-2.826v-1.86z" fill="#FFF" mask="url(#bsb)"/><path fill="#FFF" mask="url(#bsb)" d="M63.04 15.676V9.24h3.766V7.69H63.04V2.401h3.928V.851H56.292v1.55h5.057v13.275h-2.143V5.606h-1.691v10.07h-1.928v1.55h11.552v-1.55zM53.6 3.982h1.7a.086.086 0 0 0 .07-.135L53.13.457h-1.7c-.068 0-.107.077-.072.13L53.6 3.982M75.671 17.458h1.69V.225h-1.69z"/><path d="M70.728 9.656h11.578v-4.37H70.728v4.37zm-1.692 1.41h14.96v-7.19h-14.96v7.19zM91.242 3.29V15.8h5.937c.06 0 .1.06.081.117l-.509 1.433h-7.199V3.29h1.69zM87.23 4.846c-.836 3.18-1.562 5.464-2.544 8.342a.085.085 0 0 0 .081.113h1.666c.954-2.81 1.674-5.113 2.515-8.347a.089.089 0 0 0-.083-.108H87.23zM98.654 4.846c.835 3.18 1.56 5.464 2.543 8.342a.086.086 0 0 1-.08.113h-1.668c-.953-2.81-1.674-5.113-2.515-8.347-.014-.056.034-.108.085-.108h1.635zM93.716 0c.835 3.18 1.56 5.464 2.543 8.342.02.057-.026.113-.081.113H94.51c-.953-2.81-1.674-5.113-2.515-8.347C91.982.052 92.03 0 92.08 0h1.635z" fill="#FFF" mask="url(#bsb)"/></g></svg><svg width="104" height="20" viewBox="-1 -1 104 20" id="logo-training-white" y="60" xmlns="http://www.w3.org/2000/svg"><defs><path id="bta" d="M0 17.458h101.201V0H0z"/></defs><g fill="none" fill-rule="evenodd"><path d="M25.291.661h-1.529v4.544c.002 2.907.005 8.292-2.25 11.73-.032.048-.003.132.073.132h1.651c2.079-3.79 2.077-8.98 2.076-11.863L25.291.661z" fill="#000"/><path d="M19.803 4.484h1.747c.072 0 .109-.081.067-.138L19.159.959h-1.747c-.064 0-.112.078-.07.135l2.46 3.39M22.388 11.141c0-.07-.09-.119-.148-.06l-1.688 1.709V6.176h-4.023v1.55h2.332v6.775l-1.316 1.331 1.103 1.089 3.74-3.784v-1.996z" fill="#040000"/><mask id="btb" fill="#fff"><use xlink:href="#bta"/></mask><path fill="#000" mask="url(#btb)" d="M26.868 16.812h1.69V1.654h-1.69zM31.177 17.066h1.69V.616h-1.69zM11.27 1.875V.39H9.719v1.486H6.254v1.41h8.48v-1.41zM8.285 15.886h4.237v-4.258H8.285v4.258zm-1.55-5.668v7.077h7.337v-7.077H6.735zM13.25 7.436l.885-3.123c.015-.056-.023-.111-.082-.111h-1.497l-.916 3.234H9.349l-.916-3.234H6.936a.085.085 0 0 0-.082.11c.01.04.557 1.97.883 3.123h-1.81v1.41h9.134v-1.41h-1.81zM4.499 6.374v-1.55H3.027V.774H1.478v4.05H.007v1.55h1.471v6.811L0 13.712v1.524c0 .064.065.098.111.082l4.294-1.533V12.26c0-.059-.058-.1-.115-.08l-1.263.451V6.374h1.472z"/><path d="M37.48 4.008h1.748c.07 0 .108-.08.066-.138L36.837.484h-1.748c-.063 0-.111.077-.07.134l2.46 3.39M40.065 10.666c0-.07-.09-.12-.148-.06l-1.689 1.708V5.7h-4.022V7.25h2.332v6.776l-1.316 1.33 1.103 1.09 3.74-3.784v-1.996z" fill="#040000" mask="url(#btb)"/><path d="M45.425 1.206V.31h-1.69v.895c0 4.814-.414 9.677-5.125 16.036-.041.056.005.133.07.133h1.916c1.822-2.62 3.09-5.197 3.849-7.822.049-.173.095-.345.14-.513.674 2.552 1.869 5.3 3.978 8.335h1.916c.073 0 .106-.083.067-.136-4.708-6.358-5.121-11.22-5.121-16.032M56.107 11.982a.086.086 0 0 0-.142-.064l-1.514 1.305V5.66h-3.508v1.55h1.816v7.47c-.547.47-.942.812-.942.812l1.012 1.175 3.278-2.826v-1.86z" fill="#040000" mask="url(#btb)"/><path fill="#040000" mask="url(#btb)" d="M63.04 15.676V9.24h3.766V7.69H63.04V2.401h3.928V.851H56.292v1.55h5.057v13.275h-2.143V5.606h-1.691v10.07h-1.928v1.55h11.552v-1.55zM53.6 3.982h1.7a.086.086 0 0 0 .07-.135L53.13.457h-1.7c-.068 0-.107.077-.072.13L53.6 3.982"/><path fill="#000" mask="url(#btb)" d="M75.671 17.458h1.69V.225h-1.69z"/><path d="M70.728 9.656h11.578v-4.37H70.728v4.37zm-1.692 1.41h14.96v-7.19h-14.96v7.19zM91.242 3.29V15.8h5.937c.06 0 .1.06.081.117l-.509 1.433h-7.199V3.29h1.69zM87.23 4.846c-.836 3.18-1.562 5.464-2.544 8.342a.085.085 0 0 0 .081.113h1.666c.954-2.81 1.674-5.113 2.515-8.347a.089.089 0 0 0-.083-.108H87.23zM98.654 4.846c.835 3.18 1.56 5.464 2.543 8.342a.086.086 0 0 1-.08.113h-1.668c-.953-2.81-1.674-5.113-2.515-8.347-.014-.056.034-.108.085-.108h1.635zM93.716 0c.835 3.18 1.56 5.464 2.543 8.342.02.057-.026.113-.081.113H94.51c-.953-2.81-1.674-5.113-2.515-8.347C91.982.052 92.03 0 92.08 0h1.635z" fill="#000" mask="url(#btb)"/></g></svg><svg width="22" height="22" viewBox="-1 -1 22 22" id="minus" x="116" y="140" xmlns="http://www.w3.org/2000/svg"><path d="M5 9h11v1H5z" fill="#333" fill-rule="nonzero"/></svg><svg width="22" height="22" viewBox="-1 -1 22 22" id="minus-disabled" x="138" y="140" xmlns="http://www.w3.org/2000/svg"><path d="M5 9h11v1H5z" fill="#999" fill-rule="nonzero"/></svg><svg width="22" height="22" viewBox="-1 -1 22 22" id="minus-hover" x="160" y="140" xmlns="http://www.w3.org/2000/svg"><path d="M5 9h11v1H5z" fill="#0052D9" fill-rule="nonzero"/></svg><svg width="22" height="22" viewBox="-1 -1 22 22" id="minus-l" x="182" y="140" xmlns="http://www.w3.org/2000/svg"><path d="M3 10h13v1H3z" fill="#333" fill-rule="nonzero"/></svg><svg width="22" height="22" viewBox="-1 -1 22 22" id="minus-l-disabled" y="168" xmlns="http://www.w3.org/2000/svg"><path d="M3 10h13v1H3z" fill="#999" fill-rule="nonzero"/></svg><svg width="22" height="22" viewBox="-1 -1 22 22" id="minus-l-hover" x="22" y="168" xmlns="http://www.w3.org/2000/svg"><path d="M3 10h13v1H3z" fill="#0052D9" fill-rule="nonzero"/></svg><svg width="22" height="22" viewBox="-1 -1 22 22" id="minus-s" x="44" y="168" xmlns="http://www.w3.org/2000/svg"><path d="M6 10h9v1H6z" fill="#333" fill-rule="nonzero"/></svg><svg width="22" height="22" viewBox="-1 -1 22 22" id="minus-s-disabled" x="66" y="168" xmlns="http://www.w3.org/2000/svg"><path d="M6 10h9v1H6z" fill="#999" fill-rule="nonzero"/></svg><svg width="22" height="22" viewBox="-1 -1 22 22" id="minus-s-hover" x="94" y="118" xmlns="http://www.w3.org/2000/svg"><path d="M6 10h9v1H6z" fill="#0052D9" fill-rule="nonzero"/></svg><svg id="pc-l-arrow" width="18" height="18" viewBox="-1 -1 18 18" x="208" y="36" xmlns="http://www.w3.org/2000/svg"><style>.cdst0{fill-rule:evenodd;clip-rule:evenodd;fill:#666}</style><path id="cdXMLID_2_" class="cdst0" d="M6.2 8.7L9.8 12l.7-.7L6.9 8l3.6-3.3-.7-.7-3.6 3.3-.7.7.7.7z"/></svg><svg id="pc-l-arrow-hover" width="18" height="18" viewBox="-1 -1 18 18" x="208" y="54" xmlns="http://www.w3.org/2000/svg"><style>.cest0{fill-rule:evenodd;clip-rule:evenodd;fill:#2b2b2b}</style><path id="ceXMLID_2_" class="cest0" d="M6.2 8.7L9.8 12l.7-.7L6.9 8l3.6-3.3-.7-.7-3.6 3.3-.7.7.7.7z"/></svg><svg id="pc-r-arrow" width="18" height="18" viewBox="-1 -1 18 18" x="160" y="168" xmlns="http://www.w3.org/2000/svg"><style>.cfst0{fill-rule:evenodd;clip-rule:evenodd;fill:#666}</style><path id="cfXMLID_5_" class="cfst0" d="M9.8 7.3L6.2 3.8l-.7.7L9.1 8l-3.6 3.5.7.7 3.6-3.5.7-.7z"/></svg><svg id="pc-r-arrow-hover" width="18" height="18" viewBox="-1 -1 18 18" x="142" y="168" xmlns="http://www.w3.org/2000/svg"><style>.cgst0{fill-rule:evenodd;clip-rule:evenodd;fill:#2a2b2b}</style><path id="cgXMLID_5_" class="cgst0" d="M9.8 7.3L6.2 3.8l-.7.7L9.1 8l-3.6 3.5.7.7 3.6-3.5.7-.7z"/></svg><svg width="22" height="22" viewBox="-1 -1 22 22" id="plus" x="138" y="118" xmlns="http://www.w3.org/2000/svg"><g fill="#333" fill-rule="nonzero"><path d="M5 10h11v1H5z"/><path d="M11 5v11h-1V5z"/></g></svg><svg width="22" height="22" viewBox="-1 -1 22 22" id="plus-disabled" x="50" y="118" xmlns="http://www.w3.org/2000/svg"><g fill="#999" fill-rule="nonzero"><path d="M5 10h11v1H5z"/><path d="M11 5v11h-1V5z"/></g></svg><svg width="22" height="22" viewBox="-1 -1 22 22" id="plus-hover" x="72" y="118" xmlns="http://www.w3.org/2000/svg"><g fill="#0052D9" fill-rule="nonzero"><path d="M5 10h11v1H5z"/><path d="M11 5v11h-1V5z"/></g></svg><svg width="22" height="22" viewBox="-1 -1 22 22" id="plus-l" x="72" y="140" xmlns="http://www.w3.org/2000/svg"><g fill="#333" fill-rule="nonzero"><path d="M4 10h13v1H4z"/><path d="M11 4v13h-1V4z"/></g></svg><svg width="22" height="22" viewBox="-1 -1 22 22" id="plus-l-disabled" x="50" y="140" xmlns="http://www.w3.org/2000/svg"><g fill="#999" fill-rule="nonzero"><path d="M4 10h13v1H4z"/><path d="M11 4v13h-1V4z"/></g></svg><svg width="22" height="22" viewBox="-1 -1 22 22" id="plus-l-hover" x="94" y="140" xmlns="http://www.w3.org/2000/svg"><g fill="#0052D9" fill-rule="nonzero"><path d="M4 10h13v1H4z"/><path d="M11 4v13h-1V4z"/></g></svg><svg width="22" height="22" viewBox="-1 -1 22 22" id="plus-s" x="182" y="118" xmlns="http://www.w3.org/2000/svg"><g fill="#333" fill-rule="nonzero"><path d="M6 10h9v1H6z"/><path d="M11 6v9h-1V6z"/></g></svg><svg width="22" height="22" viewBox="-1 -1 22 22" id="plus-s-disabled" x="160" y="118" xmlns="http://www.w3.org/2000/svg"><g fill="#999" fill-rule="nonzero"><path d="M6 10h9v1H6z"/><path d="M11 6v9h-1V6z"/></g></svg><svg width="22" height="22" viewBox="-1 -1 22 22" id="plus-s-hover" x="116" y="118" xmlns="http://www.w3.org/2000/svg"><g fill="#0052D9" fill-rule="nonzero"><path d="M6 10h9v1H6z"/><path d="M11 6v9h-1V6z"/></g></svg><svg width="18" height="18" viewBox="-1 -1 18 18" id="search" x="144" y="190" xmlns="http://www.w3.org/2000/svg"><path d="M12.096 2.904a6.502 6.502 0 0 1 .654 8.43l2.882 2.884-1.414 1.414-2.884-2.882a6.502 6.502 0 0 1-8.43-9.846 6.5 6.5 0 0 1 9.192 0zM4.318 4.318a4.5 4.5 0 1 0 6.364 6.364 4.5 4.5 0 0 0-6.364-6.364z" fill="#0052D9" fill-rule="nonzero"/></svg><svg width="18" height="18" viewBox="-1 -1 18 18" id="search-dark" x="36" y="190" xmlns="http://www.w3.org/2000/svg"><path d="M12.096 2.904a6.502 6.502 0 0 1 .654 8.43l2.882 2.884-1.414 1.414-2.884-2.882a6.502 6.502 0 0 1-8.43-9.846 6.5 6.5 0 0 1 9.192 0zM4.318 4.318a4.5 4.5 0 1 0 6.364 6.364 4.5 4.5 0 0 0-6.364-6.364z" fill="#fff" fill-rule="nonzero"/></svg></svg>